<svg width="5120" height="339" viewBox="0 0 5120 339" fill="none" xmlns="http://www.w3.org/2000/svg">
<g clip-path="url(#clip0_404_464)">
<rect x="-124" y="59" width="5349" height="280" fill="url(#paint0_linear_404_464)"/>
<g clip-path="url(#clip1_404_464)">
<path d="M-55.6989 387.09C-48.5236 391.211 -39.6832 391.211 -32.5079 387.09L4.55313 365.807C11.7286 361.686 16.1486 354.071 16.1486 345.83V303.263C16.1486 295.022 11.7286 287.407 4.55313 283.286L-32.5079 262.003C-39.6832 257.882 -48.5236 257.882 -55.6989 262.003L-92.7599 283.286C-99.9353 287.407 -104.355 295.022 -104.355 303.263V345.83C-104.355 354.071 -99.9353 361.686 -92.7599 365.807L-55.6989 387.09Z" fill="#EA312A"/>
<path d="M16.6038 255.767C23.7792 259.888 32.6196 259.888 39.7949 255.767L76.8559 234.484C84.0313 230.363 88.4514 222.748 88.4514 214.506V171.94C88.4514 163.699 84.0313 156.083 76.8559 151.963L39.7949 130.679C32.6196 126.559 23.7792 126.559 16.6038 130.679L-20.4572 151.963C-27.6325 156.083 -32.0527 163.699 -32.0527 171.94V214.506C-32.0527 222.748 -27.6325 230.363 -20.4572 234.484L16.6038 255.767Z" fill="#213048"/>
<path d="M667.325 388.294C674.5 392.415 683.34 392.415 690.516 388.294L727.577 367.011C734.752 362.89 739.172 355.275 739.172 347.034V304.467C739.172 296.226 734.752 288.611 727.577 284.49L690.516 263.207C683.34 259.086 674.5 259.086 667.325 263.207L630.263 284.49C623.088 288.611 618.668 296.226 618.668 304.467V347.034C618.668 355.275 623.088 362.89 630.263 367.011L667.325 388.294Z" fill="#213048"/>
<path d="M673.124 356.721C676.712 358.782 681.132 358.782 684.72 356.721L703.25 346.08C706.838 344.019 709.048 340.212 709.048 336.091V314.808C709.048 310.687 706.838 306.88 703.25 304.819L684.72 294.178C681.132 292.117 676.712 292.117 673.124 294.178L654.594 304.819C651.006 306.88 648.796 310.687 648.796 314.808V336.091C648.796 340.212 651.006 344.019 654.594 346.08L673.124 356.721Z" fill="#EEA53C"/>
<path d="M739.628 256.972C746.804 261.093 755.644 261.093 762.819 256.972L799.88 235.689C807.056 231.568 811.476 223.953 811.476 215.712V173.145C811.476 164.904 807.056 157.289 799.88 153.168L762.819 131.885C755.644 127.764 746.804 127.764 739.628 131.885L702.567 153.168C695.392 157.289 690.972 164.904 690.972 173.145V215.712C690.972 223.953 695.392 231.568 702.567 235.689L739.628 256.972Z" fill="#EEA53C"/>
<path d="M88.9046 387.09C96.0799 391.211 104.92 391.211 112.096 387.09L149.157 365.807C156.332 361.686 160.752 354.071 160.752 345.83V303.263C160.752 295.022 156.332 287.407 149.157 283.286L112.096 262.003C104.92 257.882 96.0799 257.882 88.9046 262.003L51.8436 283.286C44.6682 287.407 40.248 295.022 40.248 303.263V345.83C40.248 354.071 44.6682 361.686 51.8436 365.807L88.9046 387.09Z" fill="#EEA53C"/>
<path d="M161.207 255.768C168.383 259.889 177.223 259.889 184.398 255.768L221.459 234.485C228.635 230.364 233.055 222.749 233.055 214.507V171.941C233.055 163.7 228.635 156.084 221.459 151.964L184.398 130.68C177.223 126.56 168.383 126.56 161.207 130.68L124.146 151.964C116.971 156.084 112.551 163.7 112.551 171.941V214.507C112.551 222.749 116.971 230.364 124.146 234.485L161.207 255.768Z" fill="#EA312A"/>
<path d="M811.931 388.294C819.106 392.415 827.947 392.415 835.122 388.294L872.183 367.011C879.359 362.89 883.779 355.275 883.779 347.034V304.467C883.779 296.226 879.359 288.611 872.183 284.49L835.122 263.207C827.947 259.086 819.106 259.086 811.931 263.207L774.87 284.49C767.695 288.611 763.274 296.226 763.274 304.467V347.034C763.274 355.275 767.695 362.89 774.87 367.011L811.931 388.294Z" fill="#EA312A"/>
<path d="M884.234 131.884C891.409 127.764 900.249 127.764 907.425 131.884L944.486 153.168C951.661 157.288 956.081 164.904 956.081 173.145V215.711C956.081 223.953 951.661 231.568 944.486 235.689L907.425 256.972C900.249 261.093 891.409 261.093 884.234 256.972L847.173 235.689C839.997 231.568 835.577 223.953 835.577 215.711V173.145C835.577 164.904 839.997 157.288 847.173 153.168L884.234 131.884Z" fill="url(#paint1_linear_404_464)"/>
<path d="M233.511 262.617C240.686 258.496 249.527 258.496 256.702 262.617L293.763 283.9C300.939 288.021 305.359 295.636 305.359 303.877V346.444C305.359 354.685 300.939 362.3 293.763 366.421L256.702 387.704C249.527 391.825 240.686 391.825 233.511 387.704L196.45 366.421C189.275 362.3 184.854 354.685 184.854 346.444V303.877C184.854 295.636 189.275 288.021 196.45 283.9L233.511 262.617Z" fill="url(#paint2_linear_404_464)"/>
<path d="M305.815 256.382C312.99 260.503 321.831 260.503 329.006 256.382L366.067 235.099C373.242 230.978 377.662 223.363 377.662 215.122V172.555C377.662 164.314 373.242 156.699 366.067 152.578L329.006 131.295C321.831 127.174 312.99 127.174 305.815 131.295L268.754 152.578C261.578 156.699 257.158 164.314 257.158 172.555V215.122C257.158 223.363 261.578 230.978 268.754 235.099L305.815 256.382Z" fill="#EEA53C"/>
<path d="M956.535 388.91C963.711 393.03 972.551 393.03 979.727 388.91L1016.79 367.626C1023.96 363.506 1028.38 355.89 1028.38 347.649V305.083C1028.38 296.841 1023.96 289.226 1016.79 285.105L979.727 263.822C972.551 259.701 963.711 259.701 956.535 263.822L919.474 285.105C912.299 289.226 907.879 296.841 907.879 305.083V347.649C907.879 355.89 912.299 363.506 919.474 367.626L956.535 388.91Z" fill="#EEA53C"/>
<path d="M1028.84 257.586C1036.01 261.707 1044.85 261.707 1052.03 257.586L1089.09 236.303C1096.27 232.182 1100.69 224.567 1100.69 216.326V173.759C1100.69 165.518 1096.27 157.903 1089.09 153.782L1052.03 132.499C1044.85 128.378 1036.01 128.378 1028.84 132.499L991.777 153.782C984.602 157.903 980.182 165.518 980.182 173.759V216.326C980.182 224.567 984.602 232.182 991.777 236.303L1028.84 257.586Z" fill="#EA312A"/>
<path d="M378.115 387.704C385.29 391.825 394.13 391.825 401.306 387.704L438.367 366.421C445.542 362.3 449.962 354.685 449.962 346.444V303.877C449.962 295.636 445.542 288.021 438.367 283.9L401.306 262.617C394.13 258.496 385.29 258.496 378.115 262.617L341.054 283.9C333.878 288.021 329.458 295.636 329.458 303.877V346.444C329.458 354.685 333.878 362.3 341.054 366.421L378.115 387.704Z" fill="#EA312A"/>
<path d="M450.417 256.382C457.593 260.503 466.433 260.503 473.608 256.382L510.669 235.099C517.845 230.978 522.265 223.363 522.265 215.122V172.555C522.265 164.314 517.845 156.699 510.669 152.578L473.608 131.295C466.433 127.174 457.593 127.174 450.417 131.295L413.356 152.578C406.181 156.699 401.761 164.314 401.761 172.555V215.122C401.761 223.363 406.181 230.978 413.356 235.099L450.417 256.382Z" fill="#213048"/>
<path d="M1101.14 388.91C1108.32 393.03 1117.16 393.03 1124.33 388.91L1161.39 367.626C1168.57 363.506 1172.99 355.89 1172.99 347.649V305.083C1172.99 296.841 1168.57 289.226 1161.39 285.105L1124.33 263.822C1117.16 259.701 1108.32 259.701 1101.14 263.822L1064.08 285.105C1056.9 289.226 1052.48 296.841 1052.48 305.083V347.649C1052.48 355.89 1056.9 363.506 1064.08 367.626L1101.14 388.91Z" fill="#213048"/>
<path d="M1173.44 257.586C1180.62 261.707 1189.46 261.707 1196.64 257.586L1233.7 236.303C1240.87 232.182 1245.29 224.567 1245.29 216.326V173.759C1245.29 165.518 1240.87 157.903 1233.7 153.782L1196.64 132.499C1189.46 128.378 1180.62 128.378 1173.44 132.499L1136.38 153.782C1129.21 157.903 1124.79 165.518 1124.79 173.759V216.326C1124.79 224.567 1129.21 232.182 1136.38 236.303L1173.44 257.586Z" fill="#EEA53C"/>
<path d="M522.722 386.5C529.897 390.621 538.738 390.621 545.913 386.5L582.974 365.217C590.15 361.096 594.57 353.481 594.57 345.24V302.673C594.57 294.432 590.15 286.817 582.974 282.696L545.913 261.413C538.738 257.292 529.897 257.292 522.722 261.413L485.661 282.696C478.486 286.817 474.065 294.432 474.065 302.673V345.24C474.065 353.481 478.486 361.096 485.661 365.217L522.722 386.5Z" fill="#EEA53C"/>
<path d="M595.025 255.178C602.2 259.299 611.04 259.299 618.216 255.178L655.277 233.895C662.452 229.774 666.872 222.159 666.872 213.918V171.351C666.872 163.11 662.452 155.495 655.277 151.374L618.216 130.091C611.04 125.97 602.2 125.97 595.025 130.091L557.964 151.374C550.788 155.495 546.368 163.11 546.368 171.351V213.918C546.368 222.159 550.788 229.774 557.964 233.895L595.025 255.178Z" fill="#EA312A"/>
<path d="M1245.74 387.704C1252.92 391.825 1261.76 391.825 1268.94 387.704L1306 366.421C1313.17 362.3 1317.59 354.685 1317.59 346.444V303.877C1317.59 295.636 1313.17 288.021 1306 283.9L1268.94 262.617C1261.76 258.496 1252.92 258.496 1245.74 262.617L1208.68 283.9C1201.51 288.021 1197.09 295.636 1197.09 303.877V346.444C1197.09 354.685 1201.51 362.3 1208.68 366.421L1245.74 387.704Z" fill="#EA312A"/>
<ellipse cx="16.8706" cy="16.8671" rx="16.8706" ry="16.8671" transform="matrix(1 0 0 -1 300.538 211.28)" fill="#EA312A"/>
<ellipse cx="16.8706" cy="16.8671" rx="16.8706" ry="16.8671" transform="matrix(1 0 0 -1 951.261 343.809)" fill="#EA312A"/>
<path d="M415.566 324.532C415.566 334.512 407.475 342.604 397.495 342.604H328.803V306.46H397.495C407.475 306.46 415.566 314.551 415.566 324.532V324.532Z" fill="#EEA53C"/>
<path d="M1211.55 195.62C1211.55 205.6 1203.46 213.691 1193.48 213.691H1124.79V177.548H1193.48C1203.46 177.548 1211.55 185.639 1211.55 195.62V195.62Z" fill="#EA312A"/>
</g>
<g clip-path="url(#clip2_404_464)">
<path d="M2548.3 387.09C2555.48 391.211 2564.32 391.211 2571.49 387.09L2608.55 365.807C2615.73 361.686 2620.15 354.071 2620.15 345.83V303.263C2620.15 295.022 2615.73 287.407 2608.55 283.286L2571.49 262.003C2564.32 257.882 2555.48 257.882 2548.3 262.003L2511.24 283.286C2504.06 287.407 2499.64 295.022 2499.64 303.263V345.83C2499.64 354.071 2504.06 361.686 2511.24 365.807L2548.3 387.09Z" fill="#EA312A"/>
<path d="M2620.6 255.767C2627.78 259.888 2636.62 259.888 2643.79 255.767L2680.86 234.484C2688.03 230.363 2692.45 222.748 2692.45 214.506V171.94C2692.45 163.699 2688.03 156.083 2680.86 151.963L2643.79 130.679C2636.62 126.559 2627.78 126.559 2620.6 130.679L2583.54 151.963C2576.37 156.083 2571.95 163.699 2571.95 171.94V214.506C2571.95 222.748 2576.37 230.363 2583.54 234.484L2620.6 255.767Z" fill="#213048"/>
<path d="M3271.32 388.294C3278.5 392.415 3287.34 392.415 3294.52 388.294L3331.58 367.011C3338.75 362.89 3343.17 355.275 3343.17 347.034V304.467C3343.17 296.226 3338.75 288.611 3331.58 284.49L3294.52 263.207C3287.34 259.086 3278.5 259.086 3271.32 263.207L3234.26 284.49C3227.09 288.611 3222.67 296.226 3222.67 304.467V347.034C3222.67 355.275 3227.09 362.89 3234.26 367.011L3271.32 388.294Z" fill="#213048"/>
<path d="M3277.12 356.721C3280.71 358.782 3285.13 358.782 3288.72 356.721L3307.25 346.08C3310.84 344.019 3313.05 340.212 3313.05 336.091V314.808C3313.05 310.687 3310.84 306.88 3307.25 304.819L3288.72 294.178C3285.13 292.117 3280.71 292.117 3277.12 294.178L3258.59 304.819C3255.01 306.88 3252.8 310.687 3252.8 314.808V336.091C3252.8 340.212 3255.01 344.019 3258.59 346.08L3277.12 356.721Z" fill="#EEA53C"/>
<path d="M3343.63 256.972C3350.8 261.093 3359.64 261.093 3366.82 256.972L3403.88 235.689C3411.06 231.568 3415.48 223.953 3415.48 215.712V173.145C3415.48 164.904 3411.06 157.289 3403.88 153.168L3366.82 131.885C3359.64 127.764 3350.8 127.764 3343.63 131.885L3306.57 153.168C3299.39 157.289 3294.97 164.904 3294.97 173.145V215.712C3294.97 223.953 3299.39 231.568 3306.57 235.689L3343.63 256.972Z" fill="#EEA53C"/>
<path d="M2692.9 387.09C2700.08 391.211 2708.92 391.211 2716.1 387.09L2753.16 365.807C2760.33 361.686 2764.75 354.071 2764.75 345.83V303.263C2764.75 295.022 2760.33 287.407 2753.16 283.286L2716.1 262.003C2708.92 257.882 2700.08 257.882 2692.9 262.003L2655.84 283.286C2648.67 287.407 2644.25 295.022 2644.25 303.263V345.83C2644.25 354.071 2648.67 361.686 2655.84 365.807L2692.9 387.09Z" fill="#EEA53C"/>
<path d="M2765.21 255.768C2772.38 259.889 2781.22 259.889 2788.4 255.768L2825.46 234.485C2832.63 230.364 2837.05 222.749 2837.05 214.507V171.941C2837.05 163.7 2832.63 156.084 2825.46 151.964L2788.4 130.68C2781.22 126.56 2772.38 126.56 2765.21 130.68L2728.15 151.964C2720.97 156.084 2716.55 163.7 2716.55 171.941V214.507C2716.55 222.749 2720.97 230.364 2728.15 234.485L2765.21 255.768Z" fill="#EA312A"/>
<path d="M3415.93 388.294C3423.11 392.415 3431.95 392.415 3439.12 388.294L3476.18 367.011C3483.36 362.89 3487.78 355.275 3487.78 347.034V304.467C3487.78 296.226 3483.36 288.611 3476.18 284.49L3439.12 263.207C3431.95 259.086 3423.11 259.086 3415.93 263.207L3378.87 284.49C3371.69 288.611 3367.27 296.226 3367.27 304.467V347.034C3367.27 355.275 3371.69 362.89 3378.87 367.011L3415.93 388.294Z" fill="#EA312A"/>
<path d="M3488.23 131.884C3495.41 127.764 3504.25 127.764 3511.42 131.884L3548.49 153.168C3555.66 157.288 3560.08 164.904 3560.08 173.145V215.711C3560.08 223.953 3555.66 231.568 3548.49 235.689L3511.42 256.972C3504.25 261.093 3495.41 261.093 3488.23 256.972L3451.17 235.689C3444 231.568 3439.58 223.953 3439.58 215.711V173.145C3439.58 164.904 3444 157.288 3451.17 153.168L3488.23 131.884Z" fill="url(#paint3_linear_404_464)"/>
<path d="M2837.51 262.617C2844.69 258.496 2853.53 258.496 2860.7 262.617L2897.76 283.9C2904.94 288.021 2909.36 295.636 2909.36 303.877V346.444C2909.36 354.685 2904.94 362.3 2897.76 366.421L2860.7 387.704C2853.53 391.825 2844.69 391.825 2837.51 387.704L2800.45 366.421C2793.27 362.3 2788.85 354.685 2788.85 346.444V303.877C2788.85 295.636 2793.27 288.021 2800.45 283.9L2837.51 262.617Z" fill="url(#paint4_linear_404_464)"/>
<path d="M2909.81 256.382C2916.99 260.503 2925.83 260.503 2933.01 256.382L2970.07 235.099C2977.24 230.978 2981.66 223.363 2981.66 215.122V172.555C2981.66 164.314 2977.24 156.699 2970.07 152.578L2933.01 131.295C2925.83 127.174 2916.99 127.174 2909.81 131.295L2872.75 152.578C2865.58 156.699 2861.16 164.314 2861.16 172.555V215.122C2861.16 223.363 2865.58 230.978 2872.75 235.099L2909.81 256.382Z" fill="#EEA53C"/>
<path d="M3560.54 388.91C3567.71 393.03 3576.55 393.03 3583.73 388.91L3620.79 367.626C3627.96 363.506 3632.38 355.89 3632.38 347.649V305.083C3632.38 296.841 3627.96 289.226 3620.79 285.105L3583.73 263.822C3576.55 259.701 3567.71 259.701 3560.54 263.822L3523.47 285.105C3516.3 289.226 3511.88 296.841 3511.88 305.083V347.649C3511.88 355.89 3516.3 363.506 3523.47 367.626L3560.54 388.91Z" fill="#EEA53C"/>
<path d="M3632.84 257.586C3640.01 261.707 3648.85 261.707 3656.03 257.586L3693.09 236.303C3700.27 232.182 3704.69 224.567 3704.69 216.326V173.759C3704.69 165.518 3700.27 157.903 3693.09 153.782L3656.03 132.499C3648.85 128.378 3640.01 128.378 3632.84 132.499L3595.78 153.782C3588.6 157.903 3584.18 165.518 3584.18 173.759V216.326C3584.18 224.567 3588.6 232.182 3595.78 236.303L3632.84 257.586Z" fill="#EA312A"/>
<path d="M2982.11 387.704C2989.29 391.825 2998.13 391.825 3005.31 387.704L3042.37 366.421C3049.54 362.3 3053.96 354.685 3053.96 346.444V303.877C3053.96 295.636 3049.54 288.021 3042.37 283.9L3005.31 262.617C2998.13 258.496 2989.29 258.496 2982.11 262.617L2945.05 283.9C2937.88 288.021 2933.46 295.636 2933.46 303.877V346.444C2933.46 354.685 2937.88 362.3 2945.05 366.421L2982.11 387.704Z" fill="#EA312A"/>
<path d="M3054.42 256.382C3061.59 260.503 3070.43 260.503 3077.61 256.382L3114.67 235.099C3121.84 230.978 3126.26 223.363 3126.26 215.122V172.555C3126.26 164.314 3121.84 156.699 3114.67 152.578L3077.61 131.295C3070.43 127.174 3061.59 127.174 3054.42 131.295L3017.36 152.578C3010.18 156.699 3005.76 164.314 3005.76 172.555V215.122C3005.76 223.363 3010.18 230.978 3017.36 235.099L3054.42 256.382Z" fill="#213048"/>
<path d="M3705.14 388.91C3712.32 393.03 3721.16 393.03 3728.33 388.91L3765.39 367.626C3772.57 363.506 3776.99 355.89 3776.99 347.649V305.083C3776.99 296.841 3772.57 289.226 3765.39 285.105L3728.33 263.822C3721.16 259.701 3712.32 259.701 3705.14 263.822L3668.08 285.105C3660.9 289.226 3656.48 296.841 3656.48 305.083V347.649C3656.48 355.89 3660.9 363.506 3668.08 367.626L3705.14 388.91Z" fill="#213048"/>
<path d="M3777.44 257.586C3784.62 261.707 3793.46 261.707 3800.64 257.586L3837.7 236.303C3844.87 232.182 3849.29 224.567 3849.29 216.326V173.759C3849.29 165.518 3844.87 157.903 3837.7 153.782L3800.64 132.499C3793.46 128.378 3784.62 128.378 3777.44 132.499L3740.38 153.782C3733.21 157.903 3728.79 165.518 3728.79 173.759V216.326C3728.79 224.567 3733.21 232.182 3740.38 236.303L3777.44 257.586Z" fill="#EEA53C"/>
<path d="M3126.72 386.5C3133.9 390.621 3142.74 390.621 3149.91 386.5L3186.97 365.217C3194.15 361.096 3198.57 353.481 3198.57 345.24V302.673C3198.57 294.432 3194.15 286.817 3186.97 282.696L3149.91 261.413C3142.74 257.292 3133.9 257.292 3126.72 261.413L3089.66 282.696C3082.49 286.817 3078.07 294.432 3078.07 302.673V345.24C3078.07 353.481 3082.49 361.096 3089.66 365.217L3126.72 386.5Z" fill="#EEA53C"/>
<path d="M3199.02 255.178C3206.2 259.299 3215.04 259.299 3222.22 255.178L3259.28 233.895C3266.45 229.774 3270.87 222.159 3270.87 213.918V171.351C3270.87 163.11 3266.45 155.495 3259.28 151.374L3222.22 130.091C3215.04 125.97 3206.2 125.97 3199.02 130.091L3161.96 151.374C3154.79 155.495 3150.37 163.11 3150.37 171.351V213.918C3150.37 222.159 3154.79 229.774 3161.96 233.895L3199.02 255.178Z" fill="#EA312A"/>
<path d="M3849.74 387.704C3856.92 391.825 3865.76 391.825 3872.94 387.704L3910 366.421C3917.17 362.3 3921.59 354.685 3921.59 346.444V303.877C3921.59 295.636 3917.17 288.021 3910 283.9L3872.94 262.617C3865.76 258.496 3856.92 258.496 3849.74 262.617L3812.68 283.9C3805.51 288.021 3801.09 295.636 3801.09 303.877V346.444C3801.09 354.685 3805.51 362.3 3812.68 366.421L3849.74 387.704Z" fill="#EA312A"/>
<ellipse cx="16.8706" cy="16.8671" rx="16.8706" ry="16.8671" transform="matrix(1 0 0 -1 2904.54 211.28)" fill="#EA312A"/>
<ellipse cx="16.8706" cy="16.8671" rx="16.8706" ry="16.8671" transform="matrix(1 0 0 -1 3555.26 343.809)" fill="#EA312A"/>
<path d="M3019.57 324.532C3019.57 334.512 3011.48 342.604 3001.49 342.604H2932.8V306.46H3001.49C3011.48 306.46 3019.57 314.551 3019.57 324.532V324.532Z" fill="#EEA53C"/>
<path d="M3815.55 195.62C3815.55 205.6 3807.46 213.691 3797.48 213.691H3728.79V177.548H3797.48C3807.46 177.548 3815.55 185.639 3815.55 195.62V195.62Z" fill="#EA312A"/>
</g>
<g clip-path="url(#clip3_404_464)">
<path d="M1247.31 387.09C1254.48 391.211 1263.31 391.211 1270.48 387.09L1307.52 365.807C1314.69 361.686 1319.1 354.071 1319.1 345.83V303.263C1319.1 295.022 1314.69 287.407 1307.52 283.286L1270.48 262.003C1263.31 257.882 1254.48 257.882 1247.31 262.003L1210.28 283.286C1203.11 287.407 1198.69 295.022 1198.69 303.263V345.83C1198.69 354.071 1203.11 361.686 1210.28 365.807L1247.31 387.09Z" fill="#EA312A"/>
<path d="M1319.56 255.767C1326.73 259.888 1335.56 259.888 1342.73 255.767L1379.76 234.484C1386.93 230.363 1391.35 222.748 1391.35 214.506V171.94C1391.35 163.699 1386.93 156.083 1379.76 151.963L1342.73 130.679C1335.56 126.559 1326.73 126.559 1319.56 130.679L1282.52 151.963C1275.35 156.083 1270.94 163.699 1270.94 171.94V214.506C1270.94 222.748 1275.35 230.363 1282.52 234.484L1319.56 255.767Z" fill="#213048"/>
<path d="M1969.78 388.294C1976.95 392.415 1985.78 392.415 1992.95 388.294L2029.98 367.011C2037.15 362.89 2041.57 355.275 2041.57 347.034V304.467C2041.57 296.226 2037.15 288.611 2029.98 284.49L1992.95 263.207C1985.78 259.086 1976.95 259.086 1969.78 263.207L1932.75 284.49C1925.58 288.611 1921.16 296.226 1921.16 304.467V347.034C1921.16 355.275 1925.58 362.89 1932.75 367.011L1969.78 388.294Z" fill="#213048"/>
<path d="M1975.57 356.721C1979.16 358.782 1983.58 358.782 1987.16 356.721L2005.68 346.08C2009.26 344.019 2011.47 340.212 2011.47 336.091V314.808C2011.47 310.687 2009.26 306.88 2005.68 304.819L1987.16 294.178C1983.58 292.117 1979.16 292.117 1975.57 294.178L1957.06 304.819C1953.47 306.88 1951.26 310.687 1951.26 314.808V336.091C1951.26 340.212 1953.47 344.019 1957.06 346.08L1975.57 356.721Z" fill="#EEA53C"/>
<path d="M2042.03 256.972C2049.2 261.093 2058.03 261.093 2065.2 256.972L2102.23 235.689C2109.4 231.568 2113.82 223.953 2113.82 215.712V173.145C2113.82 164.904 2109.4 157.289 2102.23 153.168L2065.2 131.885C2058.03 127.764 2049.2 127.764 2042.03 131.885L2004.99 153.168C1997.82 157.289 1993.41 164.904 1993.41 173.145V215.712C1993.41 223.953 1997.82 231.568 2004.99 235.689L2042.03 256.972Z" fill="#EEA53C"/>
<path d="M1391.8 387.09C1398.97 391.211 1407.81 391.211 1414.98 387.09L1452.01 365.807C1459.18 361.686 1463.6 354.071 1463.6 345.83V303.263C1463.6 295.022 1459.18 287.407 1452.01 283.286L1414.98 262.003C1407.81 257.882 1398.97 257.882 1391.8 262.003L1354.77 283.286C1347.6 287.407 1343.18 295.022 1343.18 303.263V345.83C1343.18 354.071 1347.6 361.686 1354.77 365.807L1391.8 387.09Z" fill="#EEA53C"/>
<path d="M1464.05 255.768C1471.22 259.889 1480.05 259.889 1487.22 255.768L1524.26 234.485C1531.43 230.364 1535.84 222.749 1535.84 214.507V171.941C1535.84 163.7 1531.43 156.084 1524.26 151.964L1487.22 130.68C1480.05 126.56 1471.22 126.56 1464.05 130.68L1427.02 151.964C1419.85 156.084 1415.43 163.7 1415.43 171.941V214.507C1415.43 222.749 1419.85 230.364 1427.02 234.485L1464.05 255.768Z" fill="#EA312A"/>
<path d="M2114.27 388.294C2121.44 392.415 2130.28 392.415 2137.45 388.294L2174.48 367.011C2181.65 362.89 2186.07 355.275 2186.07 347.034V304.467C2186.07 296.226 2181.65 288.611 2174.48 284.49L2137.45 263.207C2130.28 259.086 2121.44 259.086 2114.27 263.207L2077.24 284.49C2070.07 288.611 2065.65 296.226 2065.65 304.467V347.034C2065.65 355.275 2070.07 362.89 2077.24 367.011L2114.27 388.294Z" fill="#EA312A"/>
<path d="M2186.52 131.884C2193.69 127.764 2202.53 127.764 2209.69 131.884L2246.73 153.168C2253.9 157.288 2258.31 164.904 2258.31 173.145V215.711C2258.31 223.953 2253.9 231.568 2246.73 235.689L2209.69 256.972C2202.53 261.093 2193.69 261.093 2186.52 256.972L2149.49 235.689C2142.32 231.568 2137.9 223.953 2137.9 215.711V173.145C2137.9 164.904 2142.32 157.288 2149.49 153.168L2186.52 131.884Z" fill="url(#paint5_linear_404_464)"/>
<path d="M1536.3 262.617C1543.47 258.496 1552.3 258.496 1559.47 262.617L1596.5 283.9C1603.67 288.021 1608.09 295.636 1608.09 303.877V346.444C1608.09 354.685 1603.67 362.3 1596.5 366.421L1559.47 387.704C1552.3 391.825 1543.47 391.825 1536.3 387.704L1499.26 366.421C1492.09 362.3 1487.68 354.685 1487.68 346.444V303.877C1487.68 295.636 1492.09 288.021 1499.26 283.9L1536.3 262.617Z" fill="url(#paint6_linear_404_464)"/>
<path d="M1608.55 256.382C1615.72 260.503 1624.55 260.503 1631.72 256.382L1668.75 235.099C1675.92 230.978 1680.34 223.363 1680.34 215.122V172.555C1680.34 164.314 1675.92 156.699 1668.75 152.578L1631.72 131.295C1624.55 127.174 1615.72 127.174 1608.55 131.295L1571.51 152.578C1564.34 156.699 1559.93 164.314 1559.93 172.555V215.122C1559.93 223.363 1564.34 230.978 1571.51 235.099L1608.55 256.382Z" fill="#EEA53C"/>
<path d="M2258.77 388.91C2265.94 393.03 2274.77 393.03 2281.94 388.91L2318.97 367.626C2326.14 363.506 2330.56 355.89 2330.56 347.649V305.083C2330.56 296.841 2326.14 289.226 2318.97 285.105L2281.94 263.822C2274.77 259.701 2265.94 259.701 2258.77 263.822L2221.73 285.105C2214.56 289.226 2210.15 296.841 2210.15 305.083V347.649C2210.15 355.89 2214.56 363.506 2221.73 367.626L2258.77 388.91Z" fill="#EEA53C"/>
<path d="M2331.01 257.586C2338.18 261.707 2347.02 261.707 2354.19 257.586L2391.22 236.303C2398.39 232.182 2402.81 224.567 2402.81 216.326V173.759C2402.81 165.518 2398.39 157.903 2391.22 153.782L2354.19 132.499C2347.02 128.378 2338.18 128.378 2331.01 132.499L2293.98 153.782C2286.81 157.903 2282.39 165.518 2282.39 173.759V216.326C2282.39 224.567 2286.81 232.182 2293.98 236.303L2331.01 257.586Z" fill="#EA312A"/>
<path d="M1680.79 387.704C1687.96 391.825 1696.79 391.825 1703.96 387.704L1741 366.421C1748.17 362.3 1752.58 354.685 1752.58 346.444V303.877C1752.58 295.636 1748.17 288.021 1741 283.9L1703.96 262.617C1696.79 258.496 1687.96 258.496 1680.79 262.617L1643.76 283.9C1636.59 288.021 1632.17 295.636 1632.17 303.877V346.444C1632.17 354.685 1636.59 362.3 1643.76 366.421L1680.79 387.704Z" fill="#EA312A"/>
<path d="M1753.04 256.382C1760.21 260.503 1769.04 260.503 1776.21 256.382L1813.24 235.099C1820.41 230.978 1824.83 223.363 1824.83 215.122V172.555C1824.83 164.314 1820.41 156.699 1813.24 152.578L1776.21 131.295C1769.04 127.174 1760.21 127.174 1753.04 131.295L1716 152.578C1708.83 156.699 1704.42 164.314 1704.42 172.555V215.122C1704.42 223.363 1708.83 230.978 1716 235.099L1753.04 256.382Z" fill="#213048"/>
<path d="M2403.26 388.91C2410.43 393.03 2419.27 393.03 2426.44 388.91L2463.47 367.626C2470.64 363.506 2475.05 355.89 2475.05 347.649V305.083C2475.05 296.841 2470.64 289.226 2463.47 285.105L2426.44 263.822C2419.27 259.701 2410.43 259.701 2403.26 263.822L2366.23 285.105C2359.06 289.226 2354.64 296.841 2354.64 305.083V347.649C2354.64 355.89 2359.06 363.506 2366.23 367.626L2403.26 388.91Z" fill="#213048"/>
<path d="M2475.51 257.586C2482.68 261.707 2491.51 261.707 2498.68 257.586L2535.72 236.303C2542.89 232.182 2547.3 224.567 2547.3 216.326V173.759C2547.3 165.518 2542.89 157.903 2535.72 153.782L2498.68 132.499C2491.51 128.378 2482.68 128.378 2475.51 132.499L2438.48 153.782C2431.31 157.903 2426.89 165.518 2426.89 173.759V216.326C2426.89 224.567 2431.31 232.182 2438.48 236.303L2475.51 257.586Z" fill="#EEA53C"/>
<path d="M1825.29 386.5C1832.46 390.621 1841.29 390.621 1848.46 386.5L1885.49 365.217C1892.66 361.096 1897.08 353.481 1897.08 345.24V302.673C1897.08 294.432 1892.66 286.817 1885.49 282.696L1848.46 261.413C1841.29 257.292 1832.46 257.292 1825.29 261.413L1788.25 282.696C1781.08 286.817 1776.67 294.432 1776.67 302.673V345.24C1776.67 353.481 1781.08 361.096 1788.25 365.217L1825.29 386.5Z" fill="#EEA53C"/>
<path d="M1897.53 255.178C1904.7 259.299 1913.54 259.299 1920.71 255.178L1957.74 233.895C1964.91 229.774 1969.33 222.159 1969.33 213.918V171.351C1969.33 163.11 1964.91 155.495 1957.74 151.374L1920.71 130.091C1913.54 125.97 1904.7 125.97 1897.53 130.091L1860.5 151.374C1853.33 155.495 1848.91 163.11 1848.91 171.351V213.918C1848.91 222.159 1853.33 229.774 1860.5 233.895L1897.53 255.178Z" fill="#EA312A"/>
<path d="M2547.75 387.704C2554.92 391.825 2563.76 391.825 2570.93 387.704L2607.96 366.421C2615.13 362.3 2619.55 354.685 2619.55 346.444V303.877C2619.55 295.636 2615.13 288.021 2607.96 283.9L2570.93 262.617C2563.76 258.496 2554.92 258.496 2547.75 262.617L2510.72 283.9C2503.55 288.021 2499.13 295.636 2499.13 303.877V346.444C2499.13 354.685 2503.55 362.3 2510.72 366.421L2547.75 387.704Z" fill="#EA312A"/>
<ellipse cx="16.8576" cy="16.8671" rx="16.8576" ry="16.8671" transform="matrix(1 0 0 -1 1603.27 211.28)" fill="#EA312A"/>
<ellipse cx="16.8576" cy="16.8671" rx="16.8576" ry="16.8671" transform="matrix(1 0 0 -1 2253.5 343.809)" fill="#EA312A"/>
<path d="M1718.21 324.532C1718.21 334.512 1710.12 342.604 1700.14 342.604H1631.52V306.46H1700.14C1710.12 306.46 1718.21 314.551 1718.21 324.532V324.532Z" fill="#EEA53C"/>
<path d="M2513.58 195.62C2513.58 205.6 2505.49 213.691 2495.51 213.691H2426.89V177.548H2495.51C2505.49 177.548 2513.58 185.639 2513.58 195.62V195.62Z" fill="#EA312A"/>
</g>
<g clip-path="url(#clip4_404_464)">
<path d="M3851.3 387.09C3858.48 391.211 3867.32 391.211 3874.49 387.09L3911.55 365.807C3918.73 361.686 3923.15 354.071 3923.15 345.83V303.263C3923.15 295.022 3918.73 287.407 3911.55 283.286L3874.49 262.003C3867.32 257.882 3858.48 257.882 3851.3 262.003L3814.24 283.286C3807.06 287.407 3802.64 295.022 3802.64 303.263V345.83C3802.64 354.071 3807.06 361.686 3814.24 365.807L3851.3 387.09Z" fill="#EA312A"/>
<path d="M3923.6 255.767C3930.78 259.888 3939.62 259.888 3946.79 255.767L3983.86 234.484C3991.03 230.363 3995.45 222.748 3995.45 214.506V171.94C3995.45 163.699 3991.03 156.083 3983.86 151.963L3946.79 130.679C3939.62 126.559 3930.78 126.559 3923.6 130.679L3886.54 151.963C3879.37 156.083 3874.95 163.699 3874.95 171.94V214.506C3874.95 222.748 3879.37 230.363 3886.54 234.484L3923.6 255.767Z" fill="#213048"/>
<path d="M4574.32 388.294C4581.5 392.415 4590.34 392.415 4597.52 388.294L4634.58 367.011C4641.75 362.89 4646.17 355.275 4646.17 347.034V304.467C4646.17 296.226 4641.75 288.611 4634.58 284.49L4597.52 263.207C4590.34 259.086 4581.5 259.086 4574.32 263.207L4537.26 284.49C4530.09 288.611 4525.67 296.226 4525.67 304.467V347.034C4525.67 355.275 4530.09 362.89 4537.26 367.011L4574.32 388.294Z" fill="#213048"/>
<path d="M4580.12 356.721C4583.71 358.782 4588.13 358.782 4591.72 356.721L4610.25 346.08C4613.84 344.019 4616.05 340.212 4616.05 336.091V314.808C4616.05 310.687 4613.84 306.88 4610.25 304.819L4591.72 294.178C4588.13 292.117 4583.71 292.117 4580.12 294.178L4561.59 304.819C4558.01 306.88 4555.8 310.687 4555.8 314.808V336.091C4555.8 340.212 4558.01 344.019 4561.59 346.08L4580.12 356.721Z" fill="#EEA53C"/>
<path d="M4646.63 256.972C4653.8 261.093 4662.64 261.093 4669.82 256.972L4706.88 235.689C4714.06 231.568 4718.48 223.953 4718.48 215.712V173.145C4718.48 164.904 4714.06 157.289 4706.88 153.168L4669.82 131.885C4662.64 127.764 4653.8 127.764 4646.63 131.885L4609.57 153.168C4602.39 157.289 4597.97 164.904 4597.97 173.145V215.712C4597.97 223.953 4602.39 231.568 4609.57 235.689L4646.63 256.972Z" fill="#EEA53C"/>
<path d="M3995.9 387.09C4003.08 391.211 4011.92 391.211 4019.1 387.09L4056.16 365.807C4063.33 361.686 4067.75 354.071 4067.75 345.83V303.263C4067.75 295.022 4063.33 287.407 4056.16 283.286L4019.1 262.003C4011.92 257.882 4003.08 257.882 3995.9 262.003L3958.84 283.286C3951.67 287.407 3947.25 295.022 3947.25 303.263V345.83C3947.25 354.071 3951.67 361.686 3958.84 365.807L3995.9 387.09Z" fill="#EEA53C"/>
<path d="M4068.21 255.768C4075.38 259.889 4084.22 259.889 4091.4 255.768L4128.46 234.485C4135.63 230.364 4140.05 222.749 4140.05 214.507V171.941C4140.05 163.7 4135.63 156.084 4128.46 151.964L4091.4 130.68C4084.22 126.56 4075.38 126.56 4068.21 130.68L4031.15 151.964C4023.97 156.084 4019.55 163.7 4019.55 171.941V214.507C4019.55 222.749 4023.97 230.364 4031.15 234.485L4068.21 255.768Z" fill="#EA312A"/>
<path d="M4718.93 388.294C4726.11 392.415 4734.95 392.415 4742.12 388.294L4779.18 367.011C4786.36 362.89 4790.78 355.275 4790.78 347.034V304.467C4790.78 296.226 4786.36 288.611 4779.18 284.49L4742.12 263.207C4734.95 259.086 4726.11 259.086 4718.93 263.207L4681.87 284.49C4674.69 288.611 4670.27 296.226 4670.27 304.467V347.034C4670.27 355.275 4674.69 362.89 4681.87 367.011L4718.93 388.294Z" fill="#EA312A"/>
<path d="M4791.23 131.884C4798.41 127.764 4807.25 127.764 4814.42 131.884L4851.49 153.168C4858.66 157.288 4863.08 164.904 4863.08 173.145V215.711C4863.08 223.953 4858.66 231.568 4851.49 235.689L4814.42 256.972C4807.25 261.093 4798.41 261.093 4791.23 256.972L4754.17 235.689C4747 231.568 4742.58 223.953 4742.58 215.711V173.145C4742.58 164.904 4747 157.288 4754.17 153.168L4791.23 131.884Z" fill="url(#paint7_linear_404_464)"/>
<path d="M4140.51 262.617C4147.69 258.496 4156.53 258.496 4163.7 262.617L4200.76 283.9C4207.94 288.021 4212.36 295.636 4212.36 303.877V346.444C4212.36 354.685 4207.94 362.3 4200.76 366.421L4163.7 387.704C4156.53 391.825 4147.69 391.825 4140.51 387.704L4103.45 366.421C4096.27 362.3 4091.85 354.685 4091.85 346.444V303.877C4091.85 295.636 4096.27 288.021 4103.45 283.9L4140.51 262.617Z" fill="url(#paint8_linear_404_464)"/>
<path d="M4212.81 256.382C4219.99 260.503 4228.83 260.503 4236.01 256.382L4273.07 235.099C4280.24 230.978 4284.66 223.363 4284.66 215.122V172.555C4284.66 164.314 4280.24 156.699 4273.07 152.578L4236.01 131.295C4228.83 127.174 4219.99 127.174 4212.81 131.295L4175.75 152.578C4168.58 156.699 4164.16 164.314 4164.16 172.555V215.122C4164.16 223.363 4168.58 230.978 4175.75 235.099L4212.81 256.382Z" fill="#EEA53C"/>
<path d="M4863.54 388.91C4870.71 393.03 4879.55 393.03 4886.73 388.91L4923.79 367.626C4930.96 363.506 4935.38 355.89 4935.38 347.649V305.083C4935.38 296.841 4930.96 289.226 4923.79 285.105L4886.73 263.822C4879.55 259.701 4870.71 259.701 4863.54 263.822L4826.47 285.105C4819.3 289.226 4814.88 296.841 4814.88 305.083V347.649C4814.88 355.89 4819.3 363.506 4826.47 367.626L4863.54 388.91Z" fill="#EEA53C"/>
<path d="M4935.84 257.586C4943.01 261.707 4951.85 261.707 4959.03 257.586L4996.09 236.303C5003.27 232.182 5007.69 224.567 5007.69 216.326V173.759C5007.69 165.518 5003.27 157.903 4996.09 153.782L4959.03 132.499C4951.85 128.378 4943.01 128.378 4935.84 132.499L4898.78 153.782C4891.6 157.903 4887.18 165.518 4887.18 173.759V216.326C4887.18 224.567 4891.6 232.182 4898.78 236.303L4935.84 257.586Z" fill="#EA312A"/>
<path d="M4285.11 387.704C4292.29 391.825 4301.13 391.825 4308.31 387.704L4345.37 366.421C4352.54 362.3 4356.96 354.685 4356.96 346.444V303.877C4356.96 295.636 4352.54 288.021 4345.37 283.9L4308.31 262.617C4301.13 258.496 4292.29 258.496 4285.11 262.617L4248.05 283.9C4240.88 288.021 4236.46 295.636 4236.46 303.877V346.444C4236.46 354.685 4240.88 362.3 4248.05 366.421L4285.11 387.704Z" fill="#EA312A"/>
<path d="M4357.42 256.382C4364.59 260.503 4373.43 260.503 4380.61 256.382L4417.67 235.099C4424.84 230.978 4429.26 223.363 4429.26 215.122V172.555C4429.26 164.314 4424.84 156.699 4417.67 152.578L4380.61 131.295C4373.43 127.174 4364.59 127.174 4357.42 131.295L4320.36 152.578C4313.18 156.699 4308.76 164.314 4308.76 172.555V215.122C4308.76 223.363 4313.18 230.978 4320.36 235.099L4357.42 256.382Z" fill="#213048"/>
<path d="M5008.14 388.91C5015.32 393.03 5024.16 393.03 5031.33 388.91L5068.39 367.626C5075.57 363.506 5079.99 355.89 5079.99 347.649V305.083C5079.99 296.841 5075.57 289.226 5068.39 285.105L5031.33 263.822C5024.16 259.701 5015.32 259.701 5008.14 263.822L4971.08 285.105C4963.9 289.226 4959.48 296.841 4959.48 305.083V347.649C4959.48 355.89 4963.9 363.506 4971.08 367.626L5008.14 388.91Z" fill="#213048"/>
<path d="M5080.44 257.586C5087.62 261.707 5096.46 261.707 5103.64 257.586L5140.7 236.303C5147.87 232.182 5152.29 224.567 5152.29 216.326V173.759C5152.29 165.518 5147.87 157.903 5140.7 153.782L5103.64 132.499C5096.46 128.378 5087.62 128.378 5080.44 132.499L5043.38 153.782C5036.21 157.903 5031.79 165.518 5031.79 173.759V216.326C5031.79 224.567 5036.21 232.182 5043.38 236.303L5080.44 257.586Z" fill="#EEA53C"/>
<path d="M4429.72 386.5C4436.9 390.621 4445.74 390.621 4452.91 386.5L4489.97 365.217C4497.15 361.096 4501.57 353.481 4501.57 345.24V302.673C4501.57 294.432 4497.15 286.817 4489.97 282.696L4452.91 261.413C4445.74 257.292 4436.9 257.292 4429.72 261.413L4392.66 282.696C4385.49 286.817 4381.07 294.432 4381.07 302.673V345.24C4381.07 353.481 4385.49 361.096 4392.66 365.217L4429.72 386.5Z" fill="#EEA53C"/>
<path d="M4502.02 255.178C4509.2 259.299 4518.04 259.299 4525.22 255.178L4562.28 233.895C4569.45 229.774 4573.87 222.159 4573.87 213.918V171.351C4573.87 163.11 4569.45 155.495 4562.28 151.374L4525.22 130.091C4518.04 125.97 4509.2 125.97 4502.02 130.091L4464.96 151.374C4457.79 155.495 4453.37 163.11 4453.37 171.351V213.918C4453.37 222.159 4457.79 229.774 4464.96 233.895L4502.02 255.178Z" fill="#EA312A"/>
<path d="M5152.74 387.704C5159.92 391.825 5168.76 391.825 5175.94 387.704L5213 366.421C5220.17 362.3 5224.59 354.685 5224.59 346.444V303.877C5224.59 295.636 5220.17 288.021 5213 283.9L5175.94 262.617C5168.76 258.496 5159.92 258.496 5152.74 262.617L5115.68 283.9C5108.51 288.021 5104.09 295.636 5104.09 303.877V346.444C5104.09 354.685 5108.51 362.3 5115.68 366.421L5152.74 387.704Z" fill="#EA312A"/>
<ellipse cx="16.8706" cy="16.8671" rx="16.8706" ry="16.8671" transform="matrix(1 0 0 -1 4207.54 211.28)" fill="#EA312A"/>
<ellipse cx="16.8706" cy="16.8671" rx="16.8706" ry="16.8671" transform="matrix(1 0 0 -1 4858.26 343.809)" fill="#EA312A"/>
<path d="M4322.57 324.532C4322.57 334.512 4314.48 342.604 4304.49 342.604H4235.8V306.46H4304.49C4314.48 306.46 4322.57 314.551 4322.57 324.532V324.532Z" fill="#EEA53C"/>
<path d="M5118.55 195.62C5118.55 205.6 5110.46 213.691 5100.48 213.691H5031.79V177.548H5100.48C5110.46 177.548 5118.55 185.639 5118.55 195.62V195.62Z" fill="#EA312A"/>
</g>
</g>
<defs>
<linearGradient id="paint0_linear_404_464" x1="2550.5" y1="59" x2="2550.5" y2="339" gradientUnits="userSpaceOnUse">
<stop stop-color="#EEA53C" stop-opacity="0"/>
<stop offset="1" stop-color="#EEA53C" stop-opacity="0.6"/>
</linearGradient>
<linearGradient id="paint1_linear_404_464" x1="931.389" y1="151.369" x2="862.338" y2="258.585" gradientUnits="userSpaceOnUse">
<stop stop-color="#EEA53C"/>
<stop offset="0.484375" stop-color="#EA312A"/>
<stop offset="1" stop-color="#213048"/>
</linearGradient>
<linearGradient id="paint2_linear_404_464" x1="280.666" y1="282.101" x2="211.615" y2="389.317" gradientUnits="userSpaceOnUse">
<stop stop-color="#EEA53C"/>
<stop offset="0.484375" stop-color="#EA312A"/>
<stop offset="1" stop-color="#213048"/>
</linearGradient>
<linearGradient id="paint3_linear_404_464" x1="3535.39" y1="151.369" x2="3466.34" y2="258.585" gradientUnits="userSpaceOnUse">
<stop stop-color="#EEA53C"/>
<stop offset="0.484375" stop-color="#EA312A"/>
<stop offset="1" stop-color="#213048"/>
</linearGradient>
<linearGradient id="paint4_linear_404_464" x1="2884.67" y1="282.101" x2="2815.62" y2="389.317" gradientUnits="userSpaceOnUse">
<stop stop-color="#EEA53C"/>
<stop offset="0.484375" stop-color="#EA312A"/>
<stop offset="1" stop-color="#213048"/>
</linearGradient>
<linearGradient id="paint5_linear_404_464" x1="2233.64" y1="151.369" x2="2164.57" y2="258.536" gradientUnits="userSpaceOnUse">
<stop stop-color="#EEA53C"/>
<stop offset="0.484375" stop-color="#EA312A"/>
<stop offset="1" stop-color="#213048"/>
</linearGradient>
<linearGradient id="paint6_linear_404_464" x1="1583.42" y1="282.101" x2="1514.34" y2="389.269" gradientUnits="userSpaceOnUse">
<stop stop-color="#EEA53C"/>
<stop offset="0.484375" stop-color="#EA312A"/>
<stop offset="1" stop-color="#213048"/>
</linearGradient>
<linearGradient id="paint7_linear_404_464" x1="4838.39" y1="151.369" x2="4769.34" y2="258.585" gradientUnits="userSpaceOnUse">
<stop stop-color="#EEA53C"/>
<stop offset="0.484375" stop-color="#EA312A"/>
<stop offset="1" stop-color="#213048"/>
</linearGradient>
<linearGradient id="paint8_linear_404_464" x1="4187.67" y1="282.101" x2="4118.62" y2="389.317" gradientUnits="userSpaceOnUse">
<stop stop-color="#EEA53C"/>
<stop offset="0.484375" stop-color="#EA312A"/>
<stop offset="1" stop-color="#213048"/>
</linearGradient>
<clipPath id="clip0_404_464">
<rect width="5120" height="339" fill="white"/>
</clipPath>
<clipPath id="clip1_404_464">
<rect width="1303" height="265" fill="white" transform="translate(-45 127)"/>
</clipPath>
<clipPath id="clip2_404_464">
<rect width="1303" height="265" fill="white" transform="translate(2559 127)"/>
</clipPath>
<clipPath id="clip3_404_464">
<rect width="1302" height="265" fill="white" transform="translate(1258 127)"/>
</clipPath>
<clipPath id="clip4_404_464">
<rect width="1303" height="265" fill="white" transform="translate(3862 127)"/>
</clipPath>
</defs>
</svg>
