<svg width="86" height="86" viewBox="0 0 86 86" fill="none" xmlns="http://www.w3.org/2000/svg">
<path d="M35.5 2.33013C40.141 -0.349364 45.859 -0.349365 50.5 2.33013L74.4711 16.1699C79.1122 18.8494 81.9711 23.8013 81.9711 29.1603V56.8397C81.9711 62.1987 79.1122 67.1506 74.4711 69.8301L50.5 83.6699C45.859 86.3494 40.141 86.3494 35.5 83.6699L11.5289 69.8301C6.88784 67.1506 4.02886 62.1987 4.02886 56.8397V29.1603C4.02886 23.8013 6.88784 18.8494 11.5289 16.1699L35.5 2.33013Z" fill="#213048"/>
<g filter="url(#filter0_d_405_713)">
<path d="M18 42.1355C18 28.0997 27.4691 18.1424 39.6436 18.1424C48.2889 18.1424 56.1001 23.6753 59.487 31.0085L54.5745 35.7075C52.225 28.8625 46.6208 24.0924 39.9182 24.0924C30.3068 24.0924 24.428 32.941 24.428 42.1456C24.428 55.4186 34.4565 64.6945 48.0753 64.6945C53.1912 64.6945 57.5443 63.4536 61.0024 61.5822C55.2661 66.6269 49.7331 68.0102 43.9866 68.0102C30.7238 68 18 59.009 18 42.1355ZM67.166 54.2388C64.1249 58.4597 57.9003 62.8129 48.0753 62.8129C35.5549 62.8129 26.2893 54.4422 26.2893 42.1355C26.2893 33.419 31.6798 25.9536 39.9081 25.9536C41.8405 25.9536 43.7832 26.4418 45.441 27.2657C38.9418 27.8861 32.7173 32.4528 32.7173 42.2677C32.7173 52.0826 40.3251 57.2697 48.0651 57.2697C54.4931 57.2697 58.297 54.8491 60.7177 52.286V41.7795H67.1456V54.2286L67.166 54.2388ZM67.5118 30.3068H61.1448C58.3784 24.428 53.6082 20.2071 48.2787 18C56.3035 18.2746 63.6977 22.9125 67.5016 30.3068H67.5118ZM53.2624 47.943L58.8666 42.9593V51.4622C57.5545 52.7742 55.7543 54.0252 53.2624 54.7779V47.9329V47.943ZM61.7653 36.3991H56.3747L61.0736 32.1782H66.4642L61.7653 36.3991Z" fill="white"/>
</g>
<defs>
<filter id="filter0_d_405_713" x="14" y="16" width="57.5117" height="58.0103" filterUnits="userSpaceOnUse" color-interpolation-filters="sRGB">
<feFlood flood-opacity="0" result="BackgroundImageFix"/>
<feColorMatrix in="SourceAlpha" type="matrix" values="0 0 0 0 0 0 0 0 0 0 0 0 0 0 0 0 0 0 127 0" result="hardAlpha"/>
<feOffset dy="2"/>
<feGaussianBlur stdDeviation="2"/>
<feComposite in2="hardAlpha" operator="out"/>
<feColorMatrix type="matrix" values="0 0 0 0 0 0 0 0 0 0 0 0 0 0 0 0 0 0 0.2 0"/>
<feBlend mode="normal" in2="BackgroundImageFix" result="effect1_dropShadow_405_713"/>
<feBlend mode="normal" in="SourceGraphic" in2="effect1_dropShadow_405_713" result="shape"/>
</filter>
</defs>
</svg>
