<svg fill="none" height="245" viewBox="0 0 2100 245" width="2100" xmlns="http://www.w3.org/2000/svg" xmlns:xlink="http://www.w3.org/1999/xlink"><clipPath id="a"><path d="m0 0h1210v200h-1210z"/></clipPath><g fill="#fff"><path d="m2011.26 244.66 18.37-47.157-50.34-128.0966h21.77c13.15 33.3276 25.62 66.8816 37.41 108.1446h2.94c11.79-41.489 24.26-74.817 37.19-108.1446h21.31l-68.92 175.2536z"/><path d="m1948.72 198.636c-33.78 0-33.78-28.113-33.78-42.17 0-23.466 0-54.466 0-69.3755-10.13 0-16.55 0-24.94 0v-17.6841h24.94c0-14.9003 0-24.7124 0-36.9552h19.95v36.9552h37.18v17.6841c-12.47 0-21.42 0-37.18 0v63.0275c0 13.604 0 30.607 17.46 30.607 5.89 0 12.69-1.813 19.72-6.348v18.365c-6.57 4.08-14.96 5.894-23.35 5.894z"/><path d="m1849.54 194.782v-125.3757h19.95v125.3757zm10.2-153.4889c-8.39 0-14.51-6.5748-14.51-14.9634 0-7.9352 6.12-14.2833 14.51-14.2833 8.16 0 14.51 6.3481 14.51 14.2833 0 8.3886-6.35 14.9634-14.51 14.9634z"/><path d="m1802.74 198.636c-33.78 0-33.78-28.113-33.78-42.17 0-23.466 0-54.466 0-69.3755-10.13 0-16.55 0-24.94 0v-17.6841h24.94c0-14.9003 0-24.7124 0-36.9552h19.95v36.9552h37.18v17.6841c-12.47 0-21.42 0-37.18 0v63.0275c0 13.604 0 30.607 17.46 30.607 5.89 0 12.69-1.813 19.72-6.348v18.365c-6.57 4.08-14.96 5.894-23.35 5.894z"/><path d="m1618.89 194.782v-125.3757h19.49c0 7.4817 0 14.7367-3.4 26.0727h3.18c10.43-22.2185 26.07-29.7002 43.53-29.7002 22.44 0 45.11 13.1497 45.11 50.3312v78.672h-19.72v-70.056c0-27.2065-12.92-40.583-31.51-40.583-22.9 0-36.73 19.498-36.73 42.17v68.469z"/><path d="m1533.38 198.636c-36.05 0-62.8-26.526-62.8-66.202 0-38.9955 25.85-66.6552 61.89-66.6552 25.85 0 58.27 14.7367 58.27 63.9352v6.121h-99.76c1.14 27.433 18.82 45.117 42.63 45.117 19.5 0 33.55-12.469 40.13-28.793l18.13 7.028c-9.06 24.259-31.06 39.449-58.49 39.449zm36.73-77.311c-1.13-28.5666-20.18-38.5423-38.09-38.5423-21.76 0-36.73 16.0971-40.13 38.5423z"/><path d="m1377.87 198.636c-34.01 0-58.04-27.66-58.04-66.428 0-40.3565 25.85-66.4292 58.04-66.4292 19.5 0 35.59 9.5222 44.66 32.4209h2.95c-2.72-32.1941-2.72-58.4936-2.49-84.793h19.72v142.1533c0 20.858 1.59 29.473 4.08 39.222h-19.72c-2.04-8.389-3.18-15.19-1.14-27.433h-3.17c-9.07 22.672-26.3 31.287-44.89 31.287zm3.63-18.591c23.12 0 41.71-19.724 41.71-48.064s-18.59-47.8379-41.71-47.8379c-23.58 0-40.81 20.4049-40.81 48.0649 0 27.659 17.23 47.837 40.81 47.837z"/><path d="m1269.9 194.782v-176.8408h21.08v176.8408z"/><g clip-path="url(#a)"><path d="m222.989 57.1429h-11.309l-14.286 28.5714h16.086l-42.857 85.7147h-103.4859l14.2857-28.572h66.1312c3.246 0 6.217-1.834 7.669-4.737l52.634-105.2743c1.326-2.6571 1.189-5.8114-.377-8.3371l-12.634-20.44001c-1.56-2.52571-4.32-4.0628527-7.292-4.0628527h-125.3483c-3.2457 0-6.2172 1.8342827-7.6686 4.7371427l-52.63428 105.26812c-1.325712 2.658-1.188569 5.812.37715 8.338l12.63433 20.44c1.56 2.525 4.32 4.062 7.2914 4.062h11.3086l14.2857-28.571h-16.0857l42.8514-85.7085h103.4853l-14.285 28.5714h-66.1317c-3.2458 0-6.2172 1.8343-7.6686 4.7371l-52.6343 105.274c-1.3257 2.657-1.1886 5.812.3771 8.337l12.6343 20.44c1.56 2.526 4.32 4.063 7.2915 4.063h125.3547c3.245 0 6.217-1.834 7.668-4.737l52.634-105.2741c1.326-2.6572 1.189-5.8114-.377-8.3372l-12.634-20.44c-1.56-2.5257-4.32-4.0628-7.291-4.0628zm-73.509 28.5714-14.286 28.5717h-39.4855l14.2855-28.5717z"/><path d="m391.44 18h-66.44v176.874h28.571v-65.988h39.458c17.234 0 58.731-9.749 58.731-55.7831 0-46.0343-40.817-55.1029-60.32-55.1029zm-4.76 84.583h-36.766l-.411-58.2801h36.948c16.555 0 35.378 6.5771 35.378 29.0228s-18.595 29.2513-35.149 29.2513z"/><path d="m540.5 91.9999c-4-1.4401-5-1.4401-8.648-1.4401-24.914 0-32.783 31.2912-32.783 51.9312v52.383h-26.76v-126.0799h26.309c0 7.0286.908 14.2857-2.726 28.5714h3.634c6.343-21.0914 19.726-32.1942 37.183-32.1942 4.086 0 12.293 0 19.791 4.3287z"/><path d="m617.349 65.1656c-38.097 0-64.629 27.6629-64.629 66.8974 0 39.234 26.532 66.668 64.629 66.668s64.4-27.44 64.4-66.668c0-39.2288-26.303-66.8974-64.4-66.8974zm0 108.1654c-21.543 0-36.509-17.234-36.509-41.268 0-24.035 14.966-41.4974 36.509-41.4974s36.508 17.2344 36.508 41.4974-14.965 41.268-36.508 41.268z"/><path d="m762.612 122.988-10.429-2.948c-10.886-3.177-24.263-7.257-24.263-18.594 0-8.6175 7.486-14.2861 17.686-14.2861 12.697 0 20.183 8.6172 23.354 17.6861l24.943-8.1661c-5.44-17.9143-22.903-31.52-47.166-31.52s-45.805 14.0572-45.805 38.3201c0 24.263 20.182 32.88 34.697 37.188l13.154 3.858c9.977 2.948 20.183 6.12 20.183 16.782 0 11.566-11.566 15.195-19.954 15.195-10.886 0-23.132-6.577-29.023-21.315l-24.943 8.166c6.12 21.092 26.531 35.377 54.194 35.377 29.252 0 48.303-16.325 48.303-40.137 0-25.4-22.451-31.971-34.92-35.6z"/><path d="m929.646 68.7942h-26.983v68.7088c0 18.823-10.885 35.828-29.931 35.828-15.646 0-26.08-11.794-26.08-34.92v-69.6168h-26.983v79.1428c0 35.149 19.274 50.794 45.354 50.794 18.595 0 31.069-7.708 38.777-28.8h3.629c-3.629 11.566-2.269 17.463-.451 24.943h26.76c-2.498-9.977-4.081-18.366-4.081-39.457v-86.6228z"/><path d="m1030.46 65.1656c-16.1 0-31.288 7.0286-41.266 28.5715h-3.628c3.628-11.5657 3.628-18.1429 3.628-24.9429h-26.302v126.0798h26.76v-66.668c0-23.583 13.378-37.6404 31.518-37.6404 19.28 0 26.98 15.8744 26.98 36.7374v67.577h26.99v-79.366c0-35.5998-21.77-50.3426-44.68-50.3426z"/><path d="m1205.66 155.417v-46.257c0-29.7086-21.09-43.9944-49.66-43.9944-23.58 0-46.26 9.9772-53.97 35.3774l25.17 8.617c4.31-14.7372 14.74-21.9944 27.44-21.9944 14.51 0 23.58 8.8458 23.58 19.5024 0 11.795-11.33 12.698-38.09 18.366-22.68 4.76-42.18 14.286-42.18 38.097 0 23.812 20.18 35.6 41.72 35.6 18.37 0 33.11-9.525 40.14-28.348h3.63c-3.63 12.017-2.5 18.365-.68 24.491h26.98c-2.49-9.977-4.08-18.594-4.08-39.457zm-27.21-8.846c0 14.057-12.02 31.292-31.75 31.292-11.11 0-19.27-5.44-19.27-15.646 0-12.246 13.83-17.234 24.94-19.726 9.98-2.04 19.5-4.76 26.08-9.068v13.154z"/></g></g></svg>