<svg width="487" height="91" viewBox="0 0 487 91" fill="none" xmlns="http://www.w3.org/2000/svg">
<path fill-rule="evenodd" clip-rule="evenodd" d="M52.5 4.33017C47.8589 1.65068 42.141 1.65068 37.5 4.33018L13.5288 18.1699C8.88779 20.8494 6.02881 25.8013 6.02881 31.1603V58.8398C6.02881 64.1988 8.88779 69.1507 13.5288 71.8302L37.5 85.6699C42.141 88.3494 47.8589 88.3494 52.5 85.6699L76.4711 71.8302C81.1121 69.1507 83.9711 64.1988 83.9711 58.8398V31.1603C83.9711 25.8013 81.1121 20.8494 76.4711 18.1699L52.5 4.33017ZM41.6436 20.1424C29.469 20.1424 20 30.0997 20 44.1355C20 61.009 32.7237 70 45.9865 70.0102C51.7331 70.0102 57.266 68.627 63.0024 63.5822C59.5443 65.4537 55.1912 66.6945 50.0752 66.6945C36.4564 66.6945 26.4279 57.4187 26.4279 44.1457C26.4279 34.9411 32.3067 26.0924 41.9182 26.0924C48.6208 26.0924 54.2249 30.8625 56.5744 37.7075L61.4869 33.0086C58.1 25.6754 50.2888 20.1424 41.6436 20.1424ZM50.0752 64.8129C59.9003 64.8129 66.1249 60.4598 69.1659 56.2389L69.1456 56.2287V43.7795H62.7176V54.2861C60.2969 56.8491 56.493 59.2698 50.065 59.2698C42.325 59.2698 34.7172 54.0826 34.7172 44.2677C34.7172 34.4529 40.9418 29.8861 47.441 29.2657C45.7831 28.4419 43.8405 27.9537 41.908 27.9537C33.6798 27.9537 28.2892 35.4191 28.2892 44.1355C28.2892 56.4423 37.5549 64.8129 50.0752 64.8129ZM63.1448 32.3068H69.5016C65.6977 24.9126 58.3035 20.2747 50.2786 20C55.6082 22.2071 60.3783 26.428 63.1448 32.3068ZM60.8665 44.9594L55.2624 49.9431V56.7779C57.7542 56.0253 59.5545 54.7743 60.8665 53.4622V44.9594ZM58.3746 38.3992H63.7652L68.4642 34.1782H63.0736L58.3746 38.3992Z" fill="white"/>
<path d="M99.2528 45.268C99.2528 31.668 110.133 20.72 123.665 20.72C129.785 20.72 135.633 23.1 140.257 27.044C140.801 27.588 140.869 28.404 140.325 28.948L136.109 33.368C135.565 33.912 134.953 33.912 134.341 33.368C131.417 30.784 127.813 29.424 124.073 29.424C115.573 29.424 108.841 36.7 108.841 45.2C108.841 53.632 115.573 60.772 124.141 60.772C127.949 60.772 130.873 59.616 132.233 59.072V53.292H126.793C126.045 53.292 125.501 52.748 125.501 52.068V46.696C125.501 45.948 126.045 45.404 126.793 45.404H139.849C140.529 45.404 141.073 46.016 141.073 46.696V64.104C141.073 64.648 140.801 64.988 140.529 65.192C140.529 65.192 133.525 69.612 123.665 69.612C110.133 69.612 99.2528 58.868 99.2528 45.268ZM148.991 45.268C148.991 31.668 159.803 20.72 173.403 20.72C187.003 20.72 197.883 31.668 197.883 45.268C197.883 58.868 187.003 69.68 173.403 69.68C159.803 69.68 148.991 58.868 148.991 45.268ZM157.831 45.268C157.831 53.836 164.835 60.84 173.403 60.84C181.971 60.84 189.043 53.836 189.043 45.268C189.043 36.7 181.971 29.56 173.403 29.56C164.835 29.56 157.831 36.7 157.831 45.268ZM220.558 68.932L199.546 23.168C199.138 22.284 199.682 21.4 200.702 21.4H207.638C208.25 21.4 208.658 21.808 208.794 22.148L221.85 51.388H222.326L235.382 22.148C235.518 21.808 235.926 21.4 236.538 21.4H243.474C244.494 21.4 245.038 22.284 244.63 23.168L223.55 68.932C223.346 69.34 223.006 69.68 222.394 69.68H221.714C221.102 69.68 220.762 69.34 220.558 68.932ZM252.152 67.708V22.692C252.152 22.012 252.696 21.4 253.444 21.4H281.12C281.868 21.4 282.412 22.012 282.412 22.692V28.268C282.412 28.948 281.868 29.56 281.12 29.56H260.992V40.712H277.788C278.468 40.712 279.08 41.324 279.08 42.004V47.648C279.08 48.396 278.468 48.94 277.788 48.94H260.992V60.84H281.12C281.868 60.84 282.412 61.452 282.412 62.132V67.708C282.412 68.388 281.868 69 281.12 69H253.444C252.696 69 252.152 68.388 252.152 67.708ZM293.457 67.708V22.692C293.457 22.012 294.001 21.4 294.749 21.4H314.197C322.357 21.4 329.021 27.928 329.021 36.02C329.021 42.276 324.873 47.376 318.957 49.756L328.273 67.028C328.749 67.912 328.273 69 327.117 69H319.977C319.365 69 319.025 68.66 318.889 68.388L309.845 50.368H302.297V67.708C302.297 68.388 301.685 69 301.005 69H294.749C294.001 69 293.457 68.388 293.457 67.708ZM302.365 43.092H313.449C317.053 43.092 320.181 39.964 320.181 36.156C320.181 32.552 317.053 29.56 313.449 29.56H302.365V43.092Z" fill="white"/>
<path d="M345.7 39.506V22.294C345.7 22.034 345.934 21.8 346.194 21.8H347.91C348.17 21.8 348.404 22.034 348.404 22.294V39.506C348.404 39.766 348.17 40 347.91 40H346.194C345.934 40 345.7 39.766 345.7 39.506ZM353.952 39.506V22.294C353.952 22.034 354.16 21.8 354.42 21.8H360.4C365.418 21.8 369.526 25.882 369.526 30.874C369.526 35.918 365.418 40 360.4 40H354.42C354.16 40 353.952 39.766 353.952 39.506ZM356.604 37.53H360.036C363.858 37.53 366.64 34.722 366.64 30.874C366.64 27.052 363.858 24.27 360.036 24.27H356.604V37.53ZM373.782 39.506V22.294C373.782 22.034 373.99 21.8 374.276 21.8H384.676C384.962 21.8 385.17 22.034 385.17 22.294V23.75C385.17 24.01 384.962 24.244 384.676 24.244H376.46V29.548H383.402C383.662 29.548 383.896 29.782 383.896 30.042V31.498C383.896 31.784 383.662 31.992 383.402 31.992H376.46V37.582H384.676C384.962 37.582 385.17 37.816 385.17 38.076V39.506C385.17 39.766 384.962 40 384.676 40H374.276C373.99 40 373.782 39.766 373.782 39.506ZM389.6 39.506V22.008C389.6 21.748 389.834 21.54 390.094 21.54H390.744L402.028 34.592H402.054V22.294C402.054 22.034 402.262 21.8 402.548 21.8H404.212C404.472 21.8 404.706 22.034 404.706 22.294V39.792C404.706 40.052 404.472 40.26 404.212 40.26H403.536L392.252 26.844H392.226V39.506C392.226 39.766 392.018 40 391.732 40H390.094C389.834 40 389.6 39.766 389.6 39.506ZM412.764 39.506V24.244H408.526C408.24 24.244 408.032 24.01 408.032 23.75V22.294C408.032 22.034 408.24 21.8 408.526 21.8H419.706C419.992 21.8 420.2 22.034 420.2 22.294V23.75C420.2 24.01 419.992 24.244 419.706 24.244H415.468V39.506C415.468 39.766 415.234 40 414.974 40H413.258C412.998 40 412.764 39.766 412.764 39.506ZM423.522 39.506V22.294C423.522 22.034 423.756 21.8 424.016 21.8H425.732C425.992 21.8 426.226 22.034 426.226 22.294V39.506C426.226 39.766 425.992 40 425.732 40H424.016C423.756 40 423.522 39.766 423.522 39.506ZM434.27 39.506V24.244H430.032C429.746 24.244 429.538 24.01 429.538 23.75V22.294C429.538 22.034 429.746 21.8 430.032 21.8H441.212C441.498 21.8 441.706 22.034 441.706 22.294V23.75C441.706 24.01 441.498 24.244 441.212 24.244H436.974V39.506C436.974 39.766 436.74 40 436.48 40H434.764C434.504 40 434.27 39.766 434.27 39.506ZM449.428 39.506V31.238L443.344 22.554C443.136 22.216 443.344 21.8 443.76 21.8H445.684C445.892 21.8 446.022 21.93 446.1 22.034L450.806 28.664L455.512 22.034C455.59 21.93 455.746 21.8 455.928 21.8H457.878C458.294 21.8 458.502 22.216 458.294 22.554L452.132 31.212V39.506C452.132 39.766 451.898 40 451.638 40H449.922C449.636 40 449.428 39.766 449.428 39.506ZM345.7 68.506V51.294C345.7 51.034 345.908 50.8 346.194 50.8H352.122C355.32 50.8 357.946 53.4 357.946 56.546C357.946 59.77 355.32 62.396 352.148 62.396H348.378V68.506C348.378 68.766 348.144 69 347.884 69H346.194C345.908 69 345.7 68.766 345.7 68.506ZM348.378 59.848H351.966C353.76 59.848 355.268 58.392 355.268 56.52C355.268 54.752 353.76 53.4 351.966 53.4H348.378V59.848ZM361.645 68.506V51.294C361.645 51.034 361.853 50.8 362.139 50.8H369.211C372.331 50.8 374.879 53.27 374.879 56.364C374.879 58.756 373.293 60.732 371.031 61.642L374.593 68.246C374.775 68.584 374.593 69 374.151 69H372.123C371.915 69 371.759 68.87 371.707 68.766L368.249 61.876H364.323V68.506C364.323 68.766 364.089 69 363.829 69H362.139C361.853 69 361.645 68.766 361.645 68.506ZM364.375 59.64H369.003C370.693 59.64 372.175 58.21 372.175 56.416C372.175 54.726 370.693 53.322 369.003 53.322H364.375V59.64ZM378.118 59.926C378.118 54.726 382.252 50.54 387.452 50.54C392.652 50.54 396.812 54.726 396.812 59.926C396.812 65.126 392.652 69.26 387.452 69.26C382.252 69.26 378.118 65.126 378.118 59.926ZM380.718 59.926C380.718 63.644 383.76 66.66 387.452 66.66C391.17 66.66 394.212 63.644 394.212 59.926C394.212 56.234 391.17 53.14 387.452 53.14C383.76 53.14 380.718 56.234 380.718 59.926ZM406.411 68.974L398.481 51.476C398.325 51.138 398.533 50.8 398.923 50.8H400.769C400.977 50.8 401.159 50.956 401.211 51.086L406.931 63.956H407.087L412.807 51.086C412.859 50.956 413.015 50.8 413.249 50.8H415.095C415.485 50.8 415.693 51.138 415.537 51.476L407.555 68.974C407.477 69.13 407.321 69.26 407.113 69.26H406.853C406.671 69.26 406.489 69.13 406.411 68.974ZM418.672 68.506V51.294C418.672 51.034 418.906 50.8 419.166 50.8H420.882C421.142 50.8 421.376 51.034 421.376 51.294V68.506C421.376 68.766 421.142 69 420.882 69H419.166C418.906 69 418.672 68.766 418.672 68.506ZM426.924 68.506V51.294C426.924 51.034 427.132 50.8 427.392 50.8H433.372C438.39 50.8 442.498 54.882 442.498 59.874C442.498 64.918 438.39 69 433.372 69H427.392C427.132 69 426.924 68.766 426.924 68.506ZM429.576 66.53H433.008C436.83 66.53 439.612 63.722 439.612 59.874C439.612 56.052 436.83 53.27 433.008 53.27H429.576V66.53ZM446.754 68.506V51.294C446.754 51.034 446.962 50.8 447.248 50.8H457.648C457.934 50.8 458.142 51.034 458.142 51.294V52.75C458.142 53.01 457.934 53.244 457.648 53.244H449.432V58.548H456.374C456.634 58.548 456.868 58.782 456.868 59.042V60.498C456.868 60.784 456.634 60.992 456.374 60.992H449.432V66.582H457.648C457.934 66.582 458.142 66.816 458.142 67.076V68.506C458.142 68.766 457.934 69 457.648 69H447.248C446.962 69 446.754 68.766 446.754 68.506ZM462.573 68.506V51.294C462.573 51.034 462.781 50.8 463.067 50.8H470.139C473.259 50.8 475.807 53.27 475.807 56.364C475.807 58.756 474.221 60.732 471.959 61.642L475.521 68.246C475.703 68.584 475.521 69 475.079 69H473.051C472.843 69 472.687 68.87 472.635 68.766L469.177 61.876H465.251V68.506C465.251 68.766 465.017 69 464.757 69H463.067C462.781 69 462.573 68.766 462.573 68.506ZM465.303 59.64H469.931C471.621 59.64 473.103 58.21 473.103 56.416C473.103 54.726 471.621 53.322 469.931 53.322H465.303V59.64Z" fill="white"/>
</svg>
